<svg viewBox="0 0 800 600" xmlns="http://www.w3.org/2000/svg">
  <rect width="800" height="600" fill="#C8D5C0"/>
  <rect x="0" y="380" width="800" height="220" fill="#A8B89E"/>
  <ellipse cx="200" cy="200" rx="140" ry="160" fill="#8FAB85" opacity="0.6"/>
  <ellipse cx="600" cy="170" rx="110" ry="130" fill="#7A9870" opacity="0.5"/>
  <ellipse cx="400" cy="240" rx="90" ry="100" fill="#9AB890" opacity="0.4"/>
  <ellipse cx="100" cy="300" rx="80" ry="90" fill="#8FAB85" opacity="0.3"/>
  <ellipse cx="700" cy="310" rx="100" ry="80" fill="#7A9870" opacity="0.35"/>
  <rect x="370" y="300" width="18" height="180" fill="#5C6B54" opacity="0.7"/>
  <rect x="370" y="380" width="60" height="12" rx="6" fill="#4A5742" opacity="0.5" transform="rotate(-15 370 380)"/>
  <rect x="188" y="340" width="14" height="140" fill="#5C6B54" opacity="0.6"/>
  <rect x="188" y="400" width="50" height="10" rx="5" fill="#4A5742" opacity="0.4" transform="rotate(20 188 400)"/>
  <path d="M0,480 Q200,440 400,460 Q600,480 800,450 L800,600 L0,600 Z" fill="#8FA882" opacity="0.6"/>
  <path d="M0,520 Q200,500 400,510 Q600,500 800,490 L800,600 L0,600 Z" fill="#7A9870" opacity="0.5"/>
</svg>
